<?xml version="1.0" encoding="UTF-8"?>
<svg version="1.1" viewBox="0 0 2048 1722" width="220" height="185" xmlns="http://www.w3.org/2000/svg">
<path transform="translate(967,162)" d="m0 0h41l14 3 6 4 3 5 1 19v91l1 2 23 3 30 3 48 10 16 6 25 12 11 5 4 1 11-16 8-16 14-31 13-29 8-17 7-8 7-3 11 1 24 8 14 8 10 9 2 4-1 9-10 26-16 33-22 46-2 7 10 8 27 18 19 14 15 12 32 24 10 8 12 11 8 8 5 2 9-8 11-7 13-9 16-10 15-10 11-7 22-15 6-3h6l10 6 6 5 11 14 9 13 6 10v5l-9 13-9 8-17 11-21 13-33 22-7 6-1 2v10l4 12 12 25 8 16 12 27 14 40 6 15 6 11 4 3h14l67-6 41-2h18l10 1 4 2 2 4 1 7v43l-2 7-4 3-11 2-41 4-27 4-10 1-26 1-13 1-8 3-4 10-1 3v22l2 11v20l-4 45-3 27v8l3 5 11 4 53 18 24 10 10 7 5 6-1 10-12 31-8 17-4 5-10-1-26-7-35-12-21-8-11-3-5 1-5 10-14 34-12 24-12 20-12 19-10 16-10 13-2 3 10 9 36 26 9 8 7 10 5 11v9l-8 16-10 14-9 9-7 3h-7l-11-4-14-9-12-9-14-11-13-11-14-7h-8l-10 5-13 10-18 14-17 11-15 10-19 12-19 14-5 6 1 9 8 16 15 28 6 14 3 11v7l-6 7-10 5-18 6-10 3-11 1-9-2-5-3-7-8-10-14-11-21-11-24-2-3-5-1-12 1-77 18-35 5-37 5-3 1-1 21-1 37-2 23-3 7-6 3h-50l-9-2-7-4-3-8-2-17-2-56-2-5-10-4-31-6-34-9-41-10-17-5-20-6-10-2-11 16-7 18-10 25-11 23-6 8h-13l-25-4-20-7-9-5-2-3 1-8 8-27 14-31 8-16 6-17 1-4v-8l-6-8-23-14-20-14-13-10-14-12-10-9-8-8-8-7-10-9-8-4-6 1-20 18-18 18-12 9-13 8-9 3-9-1-8-4-11-10-10-14-7-13v-7l4-8 8-10 10-10 13-10 21-14 9-7 6-7 3-6-1-7-9-16-10-15-14-27-11-26-14-39-5-11h-8l-78 17-7 1h-15l-6-8-5-14-6-25-1-13 5-6 13-6 21-6 31-7 15-3 19-4 2-1 1-6 1-75 2-31 4-27v-7l-5-5-11-3-25-3-73-6-14-3-4-9-1-13v-31l2-10 3-5 2-1h12l45 4 50 3 24 3 4 1h11l10-28 7-22 8-16 7-11 9-12 10-14 14-24 9-14 2-4-1-6-7-8-7-6-25-16-13-11-11-9-13-12-7-7-6-9 1-6 10-19 11-16 8-10 9-6 9 2 11 6 12 9 10 9 14 11 13 11 12 9 10 8 12 8 8 1 11-8 26-22 16-11 17-12 19-12 15-10 12-9-1-9-9-35-11-34-9-32-3-13v-6l5-4 16-6 17-5 6-1h23l6 4 6 8 7 16 11 37 6 18 10 22 4 2 7-1 20-5 18-6 38-8 15-2 42-3 15-3 5-2 2-9v-15l-1-33v-37l1-14 4-8 8-5zm3 241-25 2-46 6-28 5-29 8-36 12-21 9-17 10-16 12-20 10-10 7-17 12-16 13-12 11-8 7-8 8-8 7-8 9-9 11-11 14-14 21-8 14-8 16-10 18-11 20-10 24-7 26-4 20-5 41-1 13v24l3 33 5 35 6 24 12 34 8 18 12 19 11 19 13 23 8 12 10 13 14 14 11 9 13 12 10 10 7 8 6 7 16 12 13 9 16 9 16 8 16 9 14 8 16 8 26 11 20 7 6 3 17 3 20 5 30 4 48 4h37l31-3 23-2 23-3 16-5 23-5 5-3 24-6 11-7 29-15 28-13 15-8 18-12 16-12 11-8 22-22 8-7 18-18 7-8 12-15 13-18 16-24 8-13 12-25 8-24 9-28 7-34 3-34 1-16v-25l-2-30-1-18-1-8-5-13-2-10-2-13-11-32-10-23-14-29-9-16-14-14-14-19-12-15-12-16-13-13-13-10-10-8-20-13-16-12-14-8-7-6-16-9-23-12-29-12-22-7-41-10-24-4-51-6-15-1z" fill="#050304"/>
<path transform="translate(955,566)" d="m0 0h53l15 3 16 3 17 3 24 8 29 14 23 14 12 11 14 14 7 8 9 9 11 14 13 19 9 16 11 26 4 15 5 22 2 21v17l-2 16-7 32-5 14-10 21-24 36-10 14-10 13-11 11-12 9-24 13-10 6-22 11-19 7-4 5-5 1-6 4h-4l-4-2v-2l-6-2-5 5-3-1v4l-9 1-12 3-11 1h-30l-13-3-6-1-1-2-3 1-8-6-4 1v3l-6-2-3 1-11-7-1 3-2-4-5-2-6-3-15-4-20-10-25-16-17-13-10-8-13-13-12-17-16-27-8-17-7-19-8-28-3-16v-40l2-14 9-32 13-35 10-19 10-13 11-13 15-15 10-8 9-9 11-9 10-7 18-10 14-6 30-9 23-4 13-4z" fill="#050304"/>
<path transform="translate(531,501)" d="m0 0 2 1-1 7-5 15-7 11-7 13-7 14h-2l-1 5-12 24-6 18-3 8-6 12-11 23-6 10-5 6-8 4v3l-9 4h-2l-2 5-4 2v-3l-5-1-1 9-3-1 5 7 5 5 6 11 3 6 4 16 3 13 2 23v37l1 21v24l-2 18-3 10-3 6-2 20-1 2v14l6 8 4 4 8 11 6 11 5 5 10 14 5 8 3 8 4 5 2 9 2 1 2 5 4 11 2 5 5 15 1 5 2 1 3 12 2 5 2 7 4 15 5 15 2 7 1 5h2l2 4h-2l4 5 13 8 6 6 13 2 13 7 11 10 6 9 4 4 5 3 5 5 15 12 6 3v2l5 2 6 5 7 4 14 12 12 11 6 7v2h2l4 7 7 7 12 6v2h9l8 2 10 5v-1h6l5 2 1 2 16 2 15 4 16 4 14 4 17 4 14 4 24 9 16 4 13 4 13 3 12 5 5 4 6 4v2l4 2 10 18 4 8h5l1 1 6-3h10l2 1-1-3h13l2-2 5-1-1 5-1 2 2 1 1-5 5-12 4-9 5-10 5-4 15-3 18-2h3v2l-2 1 21-1 10-2 18-2 15-4 14-4 21-4 25-1h7l6 5 7 10 6 10 4 8 7 11 4 6 4 4v3l4 1 12 8 9 1 21-3 6-1 8-6 1-3h3v-10l-2-5v-4l-2-1 1-3-1-3-2-2-2-6-7-11-1-4-4-4v-3h-2l-7-15v-12l15-15h2l2-5 8-7h2v-2l9-6 8-4 5-2v-2l6-4 9-7 11-7 9-7 8-5 5-3 15-7 16-4h9l18 10 6 8 4 3v3l5 1 4 3 3 1v2l4 1 9 7 10 4 5 1h9l10-2 2-4 5-6 6-8 3-7-1-5 2-6-1-6-7-9-8-7-4-2v-2l-11-2-12-5-6-5-4-8-5-6v-4l-3-1-1-4 4 1 11 9 18 13 14 10 9 8 7 10 5 11v9l-8 16-10 14-9 9-7 3h-7l-11-4-14-9-12-9-14-11-13-11-14-7h-8l-10 5-13 10-18 14-17 11-15 10-19 12-19 14-5 6 1 9 8 16 15 28 6 14 3 11v7l-6 7-10 5-18 6-10 3-11 1-9-2-5-3-7-8-10-14-11-21-11-24-2-3-5-1-12 1-77 18-35 5-37 5-3 1-1 21-1 37-2 23-3 7-6 3h-50l-9-2-7-4-3-8-2-17-2-56-2-5-10-4-31-6-34-9-41-10-17-5-20-6-10-2-11 16-7 18-10 25-11 23-6 8h-13l-25-4-20-7-9-5-2-3 1-8 8-27 14-31 8-16 6-17 1-4v-8l-6-8-23-14-20-14-13-10-14-12-10-9-8-8-8-7-10-9-8-4-6 1-20 18-18 18-12 9-13 8-9 3-9-1-8-4-11-10-10-14-7-13v-7l4-8 8-10 10-10 13-10 21-14 9-7 6-7 3-6-1-7-9-16-10-15-14-27-11-26-14-39-5-11h-8l-78 17-7 1h-15l-6-8-5-14-6-25-1-13 5-6 13-6 21-6 31-7 15-3 19-4 2-1 1-6 1-75 2-31 4-27v-7l-5-5-11-3-25-3-73-6-14-3-4-9-1-13v-31l2-10 3-5 2-1h12l45 4 50 3 24 3 4 1h11l10-28 7-22 8-16 7-11 9-12 10-14 14-24 9-14z" fill="#160505"/>
<path transform="translate(967,162)" d="m0 0h41l14 3 6 4 3 5 1 19v91l1 2 23 3 30 3 48 10 16 6 25 12 11 5 4 1 11-16 8-16 14-31 13-29 8-17 7-8 7-3 11 1 24 8 14 8 10 9 2 4-1 9-10 26-16 33-22 46-2 7 10 8 27 18 19 14 15 12 32 24 10 8 12 11 8 8 5 2 9-8 11-7 13-9 16-10 15-10 11-7 22-15 6-3h6l10 6 6 5 11 14 9 13 6 10v5l-9 13-9 8-17 11-21 13-33 22-7 6-1 2v10l4 12 12 25 8 16 12 27 14 40 6 15 6 11 4 3h14l67-6 41-2h18l10 1 4 2 2 4 1 7v43l-2 7-4 3-11 2-41 4-27 4-10 1-26 1-13 1-8 3-4 10-1 3v22l2 11v20l-4 45-3 27v8l3 5 11 4 53 18 24 10 10 7 5 6-1 10-12 31-8 17-4 5-10-1-26-7-35-12-21-8-11-3-5 1-5 10-14 34-12 24-12 20-12 19-10 16-10 13-4 2 1-7 5-8 4-10 11-20 3-1 1-5 8-14 6-12 6-11 7-10 9-18 8-15 6-9 4-3h8l2 1 3-1h8l10 4 11 3 8 2 18 4 10 3 3 2 12 2 9-1 6-3 3-6h2v-9l1-2-2-1-2-7-6-4-12-6-5-3-14-8-6-3-9-7-10-7-14-8-10-10-2-12v-10l1-20-1-6 1-28 1-15v-38l2-18 2-6 3-5h2v-2l8-6 8-2 9-1 27-1 14-1 19-3 21-7 15-2h3l12-2 1-13v-13l-2-11-2-2h-9l-4 1-3-1h-9l-12 1-6-1-17-1h-43l-7 1h-23l-12-3-4-5-6-5-3-5-3-10-4-14-5-11v-2h-2l-4-11-5-9-3-9-6-9-4-8-1-6h-2l-1-4-4-8-2-6-3-6-4-19-4-14-2-3 7-8 4-5 6-4 3-5 4-4 8-6 6-1 1-2h3v-2h3v-3l3-1 1-2 6-2v-2l7-3 9-5 10-4 4-3h2l2-5 6-5h2l1-7-2-7-5-10-3-3v-2h-2l-1-2-5-1-2 2h-22l-12 4-12 6-7 3-17 10-5 3-8 3h-4l-1 3-10 5-7 6-8 5-9 1-16-6-9-6-3-3v-2h-3l-5-10-10-4-10-5-10-4-13-8-6-4-5-5-7-4v-2l-4-2-5-3v-2l-5-2v-2l-4-1-9-7v-2l-4-2-5-5-1-3-3-1-5-8-2-14-3-3 6-17 4-8 7-16 4-10 6-13 3-12 2-4-1-4 2-4 1-11-3-10-1-1-16-2-8 5-10 4-11 8-6 7-4 4-3 8-4 2-2 4-5 12-8 16-10 17-6 5-11 4h-14l-21-6-12-3-21-7-10-3-17-5-5-2-8-2-11-1-19-3-4-1v-2l-6-1-2-4-4-1-3-5-2-3-1-13-1-4v-33l-2-8-1-12-1-22-2-13-5-5h-11l-5 1h-13l-7 1-9 11-6 12-2 8-1 15-2 20-1 32-2 7-2 4-5 5-3 2-11 3-12 2-17 4-6 2-12 2-26 6-34 7-15 3-11 2-9-2-14-6-7-11-1-6-6-13-3-15-2-6-2-9-3-1-4-7-6-11-1-4h-3l-3-3-5-1-1 1-22-1-12 1v2l-5 4-3 5-2 2v14l2 1 1 9 6 22 1 2 1 5 5 18 1 1 3 15 2 19-3 9-4 5-3 5-10 8-12 8-7 6-5 3h-2v2l-14 8-10 8-4 1v2l-5 3-11 6-11 8-5 3-10 8-6 2-10-1-15-2-12-6-8-5v-2l-5-2-5-5-10-6-8-3-16-8-8-3v-2l-16-2-10 2-5 4-5 8-1 5 1 4 9 11v2h2v2l4 2 7 6 9 12 4 3v2l6 2v2l6 2 10 6v2l4 2 2 2v3h2l10 13v6l-3-3-7-8-7-6-25-16-13-11-11-9-13-12-7-7-6-9 1-6 10-19 11-16 8-10 9-6 9 2 11 6 12 9 10 9 14 11 13 11 12 9 10 8 12 8 8 1 11-8 26-22 16-11 17-12 19-12 15-10 12-9-1-9-9-35-11-34-9-32-3-13v-6l5-4 16-6 17-5 6-1h23l6 4 6 8 7 16 11 37 6 18 10 22 4 2 7-1 20-5 18-6 38-8 15-2 42-3 15-3 5-2 2-9v-15l-1-33v-37l1-14 4-8 8-5z" fill="#321615"/>
<path transform="translate(1e3 174)" d="m0 0h11l5 4 2 7 1 8 1 24 2 14 1 4v35l1 6 1 9 4 5v3l4 1 4 4 8 3 26 4h5l7 2 11 4 11 3 13 4 25 8 15 4 13 3h12l12-5h2l1-3h2l2-5 7-12 8-16 6-13 6-7 4-9 5-5 9-8 6-4 14-6 4-3 16 2 3 5 2 7-1 11-2 6 1 3h-2l-2 10-3 9-4 9-8 20-5 10-7 18v4l2 2 2 14 5 8 9 9 3 2v2l4 2 6 5 3 1 3 3 5 4 6 4v2l4 2 7 4 1 3 5 2 9 6 6 3 18 8 12 6 4 8v2h3l5 6 10 5 13 5 9-1 12-8 8-6h3l1-2 4-3 5-1 9-4 13-8 8-5 8-3 13-6 7-2h22l4-2 4 2v2h2l5 6 5 10 1 9-2 4-7 5-3 5-7 5-9 3-7 4-5 3h-4v2l-3 2h-3l-1 3h-3v3h-3v2l-11 5-7 5h-2l-2 4-4 6-7 5-3 3 1-11 4-8 11-16-2-4-2-2-9 1-8 2-11 7-15 1-21-8-12-7-9-5-15-10v-2l-5-2-5-4-11-6-15-9-16-10-16-13-11-9-7-7-4-3v-2l-4-2-5-5-4-3v-2l-4-2v-2l-4-2-6-10-4-5v-2l-4-2 3-1-2-5-10 3-6-1-9-1-5-4-8 2-2 2-7 2h-12l-15-2-20-7-31-9-20-7-19-5-22-5-17-4-10-5-5-5-5-8-5-12-1-10v-18l-2-20-2-5h-3l-2-4-4 2-3 7-2 6h-2l-1 3-1-2 1-5-6 4-2 2h-5l-1 3h-2l-2 4-3 5-2 13-2 4h-2l-3 11-7 13-4 5-11 7-11 5h-2v2l-8 1v1l-32 6-50 12-26 3-3 1h-20l-11-2-2-4-5-2-8-7-3-6v-2l-2-2-2 1-3-2v-5l2-1-3-1v-2-6l-3 1-1-5-6 1-4-2-4 1-4 3-3-5v-2l-5-2-3-3v-2l-10-1-1 1v13l2 8 2 13 2 6 1 10 2 5v17l-2 11-5 4h-2l-2 4-5 6-5 5-10 7-14 11-13 11-23 13-17 8-11 5-11 7-3 1-2 4-6 4-12 4h-9l-3 1-9-3v-2l-6-2-14-8-1-2-5-2-15-9-16-8-17-8-9-1-5 3-1 6 7 10 5 8 7 6v2l4 2 4 3v2l5 2 8 5v2l4 2 6 4v2h2l5 6v3h2l3 9-1 3-8-10v-2h-2l-3-5-3-2v-2l-16-8v-2l-6-2-7-8-9-11-8-6v-2h-2l-6-8-5-6v-7l3-3 4-7 5-4 10-2 11 1 5 2 1 2 12 4 4 3 9 3v2l7 2 12 7 7 6v2l16 8 9 3 14 2 9-1 6-3 9-8 6-3 11-8 8-4 2-2h3v-2l11-7 8-6 7-4h2v-2l11-7 6-5 17-12 3-3 3-5 4-7 1-7-2-17-3-15-3-8-3-11-1-5-7-24-1-9-1-1-1-14 8-10 3-1v-2l13-2 21 1 4-1 5 3v2h3l7 14 4 5 1 3 3 3 3 12 3 9 2 9 5 11 2 7 5 9 16 7 10 1 16-4 23-4 22-5 9-2 16-4h9l1-2 18-4 8-2 12-2 9-3 4-5 2-1 2-4 1-8 1-30 3-31 1-7 3-10 6-10 8-9 10-1h12z" fill="#160505"/>
<path transform="translate(530,502)" d="m0 0h1l-1 8-7 14h-2l-2 6-5 9-4 9-7 10-6 11-7 11-5 9-4 8-5 16-10 24-5 10-6 7-5 3-12 1h-21l-7 1h-13l-23-2-37-2h-9l-6 4-3 1-2 5-2 10v6l2 4 1 4 3 3 1 2 6 2v2l23 3 15 5 36 1 16 5 16 6 3 3 1 4 1 42-1 15v30l1 6v9l-1 8-1 29-6 12-4 6-3 3-13 5-1 1-16 2-11 2h-3v2l-16 7-17 4-7 5-4 6-3 2-1 6 2 11 1 6h2v3l13 1 10 1h10l8-1 45-6 9-1h9l8 5 5 7 2 4v3h2l8 15 8 16 6 11 3 8 5 11 12 27 7 14 3 9 4 16v8l-4 13-3 9-9 11-18 14h-2l-7 7-9 3v2l-4 3-1 3-7 4-1 6 3 9h2l5 9 3 2 13 3 12-2 13-5 5-3h2l1-3 7-6 4-5h2l2-4 5-2v-2l9-7 8-4 11-2 6-1h5l8 5 2 6 6 2v2l4 2 4 4v2l4 2 7 6 5 5 7 4 5 4 5 5 16 10 18 12v2h2v2l5 2 4 4 5 3v2l4 2 8 15 5 7-1 17-4 22-7 18-4 15-3 8-3 5-1 6 2 7 4 4 7 6h5l1 1 16-7 7-5 7-11 7-19 4-9 6-17 4-4h2v-2l9-7 9-4v2h19l20 7 10 1 28 8 6 2 10 2 5 2 18 6 28 7 10 3 7 1 4 3 5 13 2 14v36l1 11 3 6v2l6 2 7 3 17 1 25 1h6l1-54 3-17 2-3 2-12 5-5 12-2 15-2 6-2 12-1 2-1 22-3 19-5 16-4 28-6 25-1h7l6 5 7 10 6 10 4 8 7 11 4 6 4 4v3l4 1 12 8 9 1 21-3 6-1 8-6 1-3h3v-10l-2-5v-4l-2-1 1-3-1-3-2-2-2-6-7-11-1-4-4-4v-3h-2l-7-15v-12l15-15h2l2-5 8-7h2v-2l9-6 8-4 5-2v-2l6-4 9-7 11-7 9-7 8-5 5-3 15-7 16-4h9l18 10 6 8 4 3v3l5 1 4 3 3 1v2l4 1 9 7 10 4 5 1h9l10-2 2-4 5-6 6-8 3-7-1-5 2-6-1-6-7-9-8-7-4-2v-2l-11-2-12-5-6-5-4-8-5-6v-4l-3-1-1-4 4 1 11 9 18 13 14 10 9 8 7 10 5 11v9l-8 16-10 14-9 9-7 3h-7l-11-4-14-9-12-9-14-11-13-11-14-7h-8l-10 5-13 10-18 14-17 11-15 10-19 12-19 14-5 6 1 9 8 16 15 28 6 14 3 11v7l-6 7-10 5-18 6-10 3-11 1-9-2-5-3-7-8-10-14-11-21-11-24-2-3-5-1-12 1-77 18-35 5-37 5-3 1-1 21-1 37-2 23-3 7-6 3h-50l-9-2-7-4-3-8-2-17-2-56-2-5-10-4-31-6-34-9-41-10-17-5-20-6-10-2-11 16-7 18-10 25-11 23-6 8h-13l-25-4-20-7-9-5-2-3 1-8 8-27 14-31 8-16 6-17 1-4v-8l-6-8-23-14-20-14-13-10-14-12-10-9-8-8-8-7-10-9-8-4-6 1-20 18-18 18-12 9-13 8-9 3-9-1-8-4-11-10-10-14-7-13v-7l4-8 8-10 10-10 13-10 21-14 9-7 6-7 3-6-1-7-9-16-10-15-14-27-11-26-14-39-5-11h-8l-78 17-7 1h-15l-6-8-5-14-6-25-1-13 5-6 13-6 21-6 31-7 15-3 19-4 2-1 1-6 1-75 2-31 4-27v-7l-5-5-11-3-25-3-73-6-14-3-4-9-1-13v-31l2-10 3-5 2-1h12l45 4 50 3 24 3 4 1h11l10-28 7-22 8-16 7-11 9-12 10-14 14-24 9-14z" fill="#321615"/>
<path transform="translate(1458,536)" d="m0 0 2 4 4 19 1 5 2 1v3l2 1 2 5 3 7-1 2h2l3 8 6 10 3 6 3 8 5 9 3 8v3h2l4 9 5 13 2 10 5 10 7 6 4 4 12 2h21l9-1h41l17 1 8 1 10-1h9l5 1 2-1h10l3 7 1 13v14l-2 6-12 3h-3l-15 2-21 7-19 3-14 1-27 1-12 2-7 2-3 1-1 3h-2v2h-2l-2 5-2 7-2 21v37l-1 18-1 23 1 5-1 30 2 12 1 3 4 2v2l4 2 11 6 6 4 1 2 4 2 10 7 4 3 10 5 11 6 10 6 8 4 3 3 2 9v7l-1 2h-2l-2 6-10 5-13-1-7-2-8-3-19-5-6-1-15-4-10-4h-8l-4 1-1-1h-8l-5 4-6 10-11 22-5 9-6 9-7 13-5 10-9 16-1 3-4 4-12 23-4 10-2 2-1 7 2 3h-2l2 4 2 1 3 7 5 6 3 6 6 4 10 4 11 3v2l5 2 8 7 7 9 1 8-2 5 1 4-3 7-6 8-8 10-4 2-6 1h-9l-13-4-9-6-3-3-3-1v-2l-5-1-3-3-4-1-2-4-10-10-16-9h-9l-16 4-10 5-5 2-5 3-11 7-10 8-14 9-6 5h-2v2l-8 5-14 7v2l-6 4-5 6-5 5-6 5 2-4 7-11h2l2-4 9-7 5-5 7-4 12-10 12-9 16-11 15-10 11-6h2v-2l14-5 5-1 1 1 20-3h13l2-4 2-11v-11l4-11 3-10 5-12 6-21 3-11 8-16 4-9 6-10 8-13 12-19 10-16 5-7h2l2-4 5-3 7-2 4-8 12-5 6-4 2-5-4-1 1-11-1-6v-11l-3-10v-24l-2-11v-16l1-16v-14l-1-27v-17l1-14 3-13 10-15 8-9 2-1v-3l8-6 3-1 2-8-9-3-11-8-9-10-3-4-1-4-10-10v-2h-2l-5-12-2-8-1-10-4-7-6-16-8-16-5-13-7-13-4-10-5-10-5-14-1-10z" fill="#170605"/>
<path transform="translate(1266,357)" d="m0 0 4 2 17 12 18 12 19 14 15 12 32 24 10 8 12 11 8 8 5 2 9-8 11-7 13-9 16-10 15-10 11-7 22-15 6-3h6l10 6 6 5 11 14 9 13 6 10v5l-9 13-9 8-17 11-21 13-33 22-7 6-1 2v10l4 12 12 25 8 16 12 27 14 40 6 15 6 11 4 3h14l67-6 41-2h18l10 1 4 2 2 4 1 7v43l-2 7-4 3-11 2-41 4-27 4-10 1-26 1-13 1-8 3-4 10-1 3v22l2 11v20l-4 45-3 27v8l3 5 11 4 53 18 24 10 10 7 5 6-1 10-12 31-8 17-4 5-10-1-26-7-35-12-21-8-11-3-5 1-5 10-14 34-12 24-12 20-12 19-10 16-10 13-4 2 1-7 5-8 4-10 11-20 3-1 1-5 8-14 6-12 6-11 7-10 9-18 8-15 6-9 4-3h8l2 1 3-1h8l10 4 11 3 8 2 18 4 10 3 3 2 12 2 9-1 6-3 3-6h2v-9l1-2-2-1-2-7-6-4-12-6-5-3-14-8-6-3-9-7-10-7-14-8-10-10-2-12v-10l1-20-1-6 1-28 1-15v-38l2-18 2-6 3-5h2v-2l8-6 8-2 9-1 27-1 14-1 19-3 21-7 15-2h3l12-2 1-13v-13l-2-11-2-2h-9l-4 1-3-1h-9l-12 1-6-1-17-1h-43l-7 1h-23l-12-3-4-5-6-5-3-5-3-10-4-14-5-11v-2h-2l-4-11-5-9-3-9-6-9-4-8-1-6h-2l-1-4-4-8-2-6-3-6-4-19-4-14-2-3 7-8 4-5 6-4 3-5 4-4 8-6 6-1 1-2h3v-2h3v-3l3-1 1-2 6-2v-2l7-3 9-5 10-4 4-3h2l2-5 6-5h2l1-7-2-7-5-10-3-3v-2h-2l-1-2-5-1-2 2h-22l-12 4-12 6-7 3-17 10-5 3-8 3h-4l-1 3-10 5-7 6-8 5-9 1-16-6-9-6-3-3v-2h-3l-5-10-10-4-10-5-10-4-13-8-6-4-5-5-7-4v-2l-4-2-5-3v-2l-5-2v-2l-4-1-9-7v-2l-4-2-5-5-1-3-3-1-5-8z" fill="#341918"/>
<path transform="translate(1426,1125)" d="m0 0 4 1 11 9 18 13 14 10 9 8 7 10 5 11v9l-8 16-10 14-9 9-7 3h-7l-11-4-14-9-12-9-14-11-13-11-14-7h-8l-10 5-13 10-18 14-17 11-15 10-19 12-19 14-5 6 1 9 8 16 15 28 6 14 3 11v7l-6 7-10 5-18 6-10 3-11 1-9-2-5-3-7-8-10-14-11-21-11-24-2-3-5-1-12 1-77 18-35 5-37 5-3 1-1 21-1 37-2 23-3 7-6 3h-50l-9-2-7-4-3-8-2-17-2-56-2-5-10-4-31-6-34-9-41-10-17-5-20-6-10-2-11 16-7 18-10 25-11 23-6 8h-13l-25-4-20-7-9-5-2-3 1-8 8-27 14-31 8-16 6-17 1-4v-8l-6-8-23-14-20-14-13-10-14-12-10-9-8-8-8-7-10-9-10-5 4-4h7l8 5 2 6 6 2v2l4 2 4 4v2l4 2 7 6 5 5 7 4 5 4 5 5 16 10 18 12v2h2v2l5 2 4 4 5 3v2l4 2 8 15 5 7-1 17-4 22-7 18-4 15-3 8-3 5-1 6 2 7 4 4 7 6h5l1 1 16-7 7-5 7-11 7-19 4-9 6-17 4-4h2v-2l9-7 9-4v2h19l20 7 10 1 28 8 6 2 10 2 5 2 18 6 28 7 10 3 7 1 4 3 5 13 2 14v36l1 11 3 6v2l6 2 7 3 17 1 25 1h6l1-54 3-17 2-3 2-12 5-5 12-2 15-2 6-2 12-1 2-1 22-3 19-5 16-4 28-6 25-1h7l6 5 7 10 6 10 4 8 7 11 4 6 4 4v3l4 1 12 8 9 1 21-3 6-1 8-6 1-3h3v-10l-2-5v-4l-2-1 1-3-1-3-2-2-2-6-7-11-1-4-4-4v-3h-2l-7-15v-12l15-15h2l2-5 8-7h2v-2l9-6 8-4 5-2v-2l6-4 9-7 11-7 9-7 8-5 5-3 15-7 16-4h9l18 10 6 8 4 3v3l5 1 4 3 3 1v2l4 1 9 7 10 4 5 1h9l10-2 2-4 5-6 6-8 3-7-1-5 2-6-1-6-7-9-8-7-4-2v-2l-11-2-12-5-6-5-4-8-5-6v-4l-3-1z" fill="#321716"/>
<path transform="translate(1258,206)" d="m0 0 11 1 24 8 14 8 10 9 2 4-1 9-10 26-16 33-22 46-3 7-2-4-3-3 6-17 4-8 7-16 4-10 6-13 3-12 2-4-1-4 2-4 1-11-3-10-1-1-16-2-8 5-10 4-11 8-6 7-4 4-3 8-4 2-2 4-5 12-8 16-10 17-6 5-11 4h-14l-21-6-12-3-21-7-10-3-17-5-5-2-8-2-11-1-19-3-4-1v-2l-6-1-2-4-4-1-3-5-1-2 26 3 30 3 48 10 16 6 25 12 11 5 4 1 11-16 8-16 14-31 13-29 8-17 7-8z" fill="#2F1312"/>
<path transform="translate(1426,1125)" d="m0 0 4 1 11 9 18 13 14 10 9 8 7 10 5 11v9l-8 16-10 14-9 9-7 3h-7l-11-4-14-9-12-9-14-11-13-11-14-7h-8l-10 5-13 10-18 14-17 11-15 10-19 12-19 14-5 6 1 9 8 16 15 28 6 14 3 11v7l-6 7-10 5-18 6-10 3-11 1-9-2-5-3-7-8-10-14-11-21-11-24-2-3-5-1-12 1-77 18-35 5-37 5-5 1 2-5 6-3 20-2 10-3 12-1 2-1 22-3 19-5 16-4 28-6 25-1h7l6 5 7 10 6 10 4 8 7 11 4 6 4 4v3l4 1 12 8 9 1 21-3 6-1 8-6 1-3h3v-10l-2-5v-4l-2-1 1-3-1-3-2-2-2-6-7-11-1-4-4-4v-3h-2l-7-15v-12l15-15h2l2-5 8-7h2v-2l9-6 8-4 5-2v-2l6-4 9-7 11-7 9-7 8-5 5-3 15-7 16-4h9l18 10 6 8 4 3v3l5 1 4 3 3 1v2l4 1 9 7 10 4 5 1h9l10-2 2-4 5-6 6-8 3-7-1-5 2-6-1-6-7-9-8-7-4-2v-2l-11-2-12-5-6-5-4-8-5-6v-4l-3-1z" fill="#371C1B"/>
<path transform="translate(1266,357)" d="m0 0 4 2 17 12 18 12 19 14 15 12 32 24 10 8 12 11 8 8 5 2 9-8 11-7 13-9 16-10 15-10 11-7 22-15 6-3h6l10 6 6 5 11 14 9 13 6 10v5l-9 13-9 8-17 11-21 13-33 22-7 2 2-4 7-5 3-5 4-4 8-6 6-1 1-2h3v-2h3v-3l3-1 1-2 6-2v-2l7-3 9-5 10-4 4-3h2l2-5 6-5h2l1-7-2-7-5-10-3-3v-2h-2l-1-2-5-1-2 2h-22l-12 4-12 6-7 3-17 10-5 3-8 3h-4l-1 3-10 5-7 6-8 5-9 1-16-6-9-6-3-3v-2h-3l-5-10-10-4-10-5-10-4-13-8-6-4-5-5-7-4v-2l-4-2-5-3v-2l-5-2v-2l-4-1-9-7v-2l-4-2-5-5-1-3-3-1-5-8z" fill="#301413"/>
<path transform="translate(1250,1261)" d="m0 0m-1 1m-1 1m-1 1m-2 1 2 1-1 1v12l6 13v2h2l2 6 3 1 3 7 7 12 2 4 1 5v2l3 9v7l-1 3h-3l-1 4-10 7-11 1-14 2-9-1-13-9-3-1v-3l-3-1-4-5-4-7-7-11-7-14-7-9-6-6h-11v-2l1-1-2-2 7-2 7 1 5 5 3 7 7 2 5 6 6 7 6 1 3-3 1-2 1-14 3-5 8-9 5-2 3-3 6-3 7-10z" fill="#170605"/>
<path transform="translate(741,774)" d="m0 0h1v13h2l1 27 2 16v7l-2-4-4-19z" fill="#A09393"/>
<path transform="translate(300,653)" d="m0 0h1l2 38 2 8 3 5 7 2 20 2 4 2h-9l-18-2-8-3-3-8-1-13z" fill="#FDFDFD"/>
<path transform="translate(890 1e3)" d="m0 0h6l19 8 10 4-1 2-4 1-11-7-1 3-2-4-5-2-6-3-5-1z" fill="#81706F"/>
<path transform="translate(751,731)" d="m0 0 1 4-3 13-2 12-2 1-2 13h-1v-10z" fill="#A89C9C"/>
<path transform="translate(1060,1006)" d="m0 0 2 1-3 4-5 1-6 4h-4l-3-1 3-3 8-4z" fill="#FDFDFD"/>
<path transform="translate(1509,393)" d="m0 0h6l10 6 3 4-5-2-7-4-9 1-7 1 3-3z" fill="#FDFDFD"/>
<path transform="translate(1463,514)" d="m0 0 2 1-5 6v13l-3-1-3-8v-3l7-7z" fill="#6D5959"/>
<path transform="translate(447,399)" d="m0 0 1 3-4 13h-2l2 10-4-5-1-4z" fill="#FDFDFD"/>
<path transform="translate(1138,1295)" d="m0 0h10l-1 2-21 4h-6l2-2z" fill="#150504"/>
<path transform="translate(1195,449)" d="m0 0 6 1 12 6 5 4-1 2-22-12z" fill="#827171"/>
<path transform="translate(1490,1180)" d="m0 0 3 4 1 3v9l-4 9-1-3 2-9z" fill="#FDFDFD"/>
<path transform="translate(806,1167)" d="m0 0 9 3 14 6 3 2-8-1-16-7-2-1z" fill="#796766"/>
<path transform="translate(679,218)" d="m0 0 2 1-6 7v11l-2-4-1-10 5-4z" fill="#FDFDFD"/>
<path transform="translate(1394,1197)" d="m0 0 5 2 16 14h-3l-11-9-7-6z" fill="#FDFDFD"/>
<path transform="translate(446,1184)" d="m0 0 5 5 7 8 10 8-2 1-10-8-8-9z" fill="#FDFDFD"/>
<path transform="translate(1318,236)" d="m0 0h1l-1 9-6 16-1-4 4-12 1-7z" fill="#FDFDFD"/>
<path transform="translate(590,633)" d="m0 0 2 1-12 22-2-3 9-15z" fill="#715E5D"/>
<path transform="translate(1139,1178)" d="m0 0 4 1-9 4-11 3 1-3 8-3z" fill="#958786"/>
<path transform="translate(1618 1e3)" d="m0 0 1 2-6 10-1 1-10-1-4-2 13 1 6-10z" fill="#FDFDFD"/>
<path transform="translate(912,1007)" d="m0 0 12 4v3l-4 1-8-5z" fill="#6C5857"/>
<path transform="translate(604,1190)" d="m0 0 5 2 8 7 7 6h-3l-13-11z" fill="#FDFDFD"/>
<path transform="translate(1376,438)" d="m0 0 4 2 13 12 2 3-4-2-15-14z" fill="#FDFDFD"/>
<path transform="translate(1358,589)" d="m0 0 4 1 7 7 1 6-4-5-8-8z" fill="#7B6969"/>
<path transform="translate(440,1151)" d="m0 0v3l-2 7-1 8-2-2v-7l4-8z" fill="#FDFDFD"/>
<path transform="translate(324,899)" d="m0 0v3l-2 5-1 11h-1l-1-13z" fill="#FDFDFD"/>
<path transform="translate(1195,449)" d="m0 0 6 1 8 4v1h-5l-9-5z" fill="#624C4C"/>
<path transform="translate(1035,1011)" d="m0 0 1 2-2 4-3-1z" fill="#D9D4D4"/>
<path transform="translate(933,1015)" d="m0 0 2 2h-2z" fill="#FDFDFD"/>
<path transform="translate(935,1017)" d="m0 0" fill="#FDFDFD"/>
<path transform="translate(1058,1011)" d="m0 0" fill="#FDFDFD"/>
<path transform="translate(1073 1e3)" d="m0 0" fill="#FDFDFD"/>
</svg>
